<?xml version="1.0" encoding="utf-8"?>
<!DOCTYPE svg PUBLIC "-//W3C//DTD SVG 1.1//EN" "http://www.w3.org/Graphics/SVG/1.1/DTD/svg11.dtd">
<svg version="1.1" xmlns="http://www.w3.org/2000/svg" xmlns:xlink="http://www.w3.org/1999/xlink" x="0px" y="0px" width="860px"
	 height="400px" viewBox="0 0 860 400" enable-background="new 0 0 860 400" xml:space="preserve">
<g id="Courses">
	<g>
		<g>
			<g>
				<rect x="87.62" y="279.35" fill="#FFFFFF" width="145.51" height="91.32"/>
				<path fill="#6F6F6E" d="M232.62,279.85v90.32H88.12v-90.32H232.62 M233.62,278.85h-1H88.12h-1v1v90.32v1h1h144.51h1v-1v-90.32
					V278.85L233.62,278.85z"/>
			</g>
			<rect x="115.45" y="288.64" fill="#FBBA00" width="117.18" height="7.81"/>
			<rect x="88.12" y="288.64" fill="#1A4175" width="13.91" height="7.81"/>
			<g>
				<rect x="104.63" y="295.73" fill="#1A4175" width="8.89" height="0.38"/>
				<rect x="104.63" y="291.39" fill="#1A4175" width="8.89" height="0.34"/>
				<rect x="102.99" y="297.02" fill="#1A4175" width="12.22" height="0.61"/>
				<rect x="106.69" y="298.51" fill="#1A4175" width="4.8" height="0.57"/>
				<polygon fill="#1A4175" points="109.09,289.5 105.1,291.07 113.07,291.07 				"/>
				<rect x="105.67" y="292.13" fill="#1A4175" width="0.55" height="3.27"/>
				<rect x="106.93" y="292.13" fill="#1A4175" width="0.55" height="3.27"/>
				<rect x="108.18" y="292.13" fill="#1A4175" width="0.55" height="3.27"/>
				<rect x="109.44" y="292.13" fill="#1A4175" width="0.55" height="3.27"/>
				<rect x="110.69" y="292.13" fill="#1A4175" width="0.55" height="3.27"/>
				<rect x="111.94" y="292.13" fill="#1A4175" width="0.55" height="3.27"/>
			</g>
		</g>
		<rect x="92.59" y="311.32" fill="#D9D9D9" width="124.05" height="9.4"/>
		<rect x="92.59" y="336.6" fill="#D9D9D9" width="124.05" height="9.4"/>
	</g>
	<text transform="matrix(1 0 0 1 43.9019 264.1523)" fill="#575756" font-family="'Arial-ItalicMT'" font-size="24">andere cursussen</text>
	<g>
		<g>
			<g>
				<rect x="1.7" y="306.74" fill="#FFFFFF" width="145.51" height="91.32"/>
				<path fill="#6F6F6E" d="M146.71,307.24v90.32H2.2v-90.32H146.71 M147.71,306.24h-1H2.2h-1v1v90.32v1h1h144.51h1v-1v-90.32
					V306.24L147.71,306.24z"/>
			</g>
			<rect x="29.53" y="316.02" fill="#FBBA00" width="117.18" height="7.81"/>
			<rect x="2.2" y="316.02" fill="#1A4175" width="13.91" height="7.81"/>
			<g>
				<rect x="18.72" y="323.12" fill="#1A4175" width="8.89" height="0.38"/>
				<rect x="18.72" y="318.78" fill="#1A4175" width="8.89" height="0.34"/>
				<rect x="17.07" y="324.41" fill="#1A4175" width="12.22" height="0.61"/>
				<rect x="20.77" y="325.9" fill="#1A4175" width="4.8" height="0.57"/>
				<polygon fill="#1A4175" points="23.18,316.89 19.18,318.46 27.15,318.46 				"/>
				<rect x="19.75" y="319.52" fill="#1A4175" width="0.55" height="3.27"/>
				<rect x="21.01" y="319.52" fill="#1A4175" width="0.55" height="3.27"/>
				<rect x="22.26" y="319.52" fill="#1A4175" width="0.55" height="3.27"/>
				<rect x="23.52" y="319.52" fill="#1A4175" width="0.55" height="3.27"/>
				<rect x="24.77" y="319.52" fill="#1A4175" width="0.55" height="3.27"/>
				<rect x="26.03" y="319.52" fill="#1A4175" width="0.55" height="3.27"/>
			</g>
		</g>
		<rect x="12.95" y="336.6" fill="#D9D9D9" width="124.05" height="9.4"/>
		<rect x="12.95" y="363.63" fill="#D9D9D9" width="20.8" height="8"/>
		<rect x="92.59" y="363.63" fill="#D9D9D9" width="22.21" height="8"/>
		<rect x="12.95" y="381.13" fill="#D9D9D9" width="101.84" height="8"/>
		<rect x="37.12" y="363.63" fill="#1D70B7" width="22.88" height="8"/>
		<rect x="63.37" y="363.63" fill="#1D70B7" width="25.83" height="8"/>
		<rect x="37.12" y="374.34" fill="#1D70B7" stroke="#1D70B7" stroke-miterlimit="10" width="52.08" height="1.56"/>
	</g>
</g>
</svg>

